<svg width="40" height="40" viewBox="0 0 40 40" fill="none" xmlns="http://www.w3.org/2000/svg">
<g clip-path="url(#clip0_876_5270)">
<path d="M20 40C14.6578 40 9.63539 37.9196 5.85781 34.1422C2.08039 30.3646 0 25.3422 0 20C0 14.6578 2.08039 9.63539 5.85781 5.85781C9.63539 2.08039 14.6578 0 20 0C25.3422 0 30.3646 2.08039 34.1422 5.85781C37.9196 9.63539 40 14.6578 40 20C40 25.3422 37.9196 30.3646 34.1422 34.1422C30.3646 37.9196 25.3422 40 20 40ZM20 3.125C10.6951 3.125 3.125 10.6951 3.125 20C3.125 29.3049 10.6951 36.875 20 36.875C29.3049 36.875 36.875 29.3049 36.875 20C36.875 10.6951 29.3049 3.125 20 3.125ZM19.9219 21.4844C15.7863 21.4844 12.4219 18.1199 12.4219 13.9844C12.4219 9.84883 15.7863 6.48438 19.9219 6.48438C24.0574 6.48438 27.4219 9.84883 27.4219 13.9844C27.4219 18.1199 24.0574 21.4844 19.9219 21.4844ZM19.9219 9.60938C17.5095 9.60938 15.5469 11.572 15.5469 13.9844C15.5469 16.3967 17.5095 18.3594 19.9219 18.3594C22.3343 18.3594 24.2969 16.3967 24.2969 13.9844C24.2969 11.572 22.3343 9.60938 19.9219 9.60938ZM29.8213 30.5837C30.4889 30.037 30.5868 29.0525 30.04 28.3848C27.8305 25.6876 24.5659 24.1406 21.0832 24.1406H19.2293C15.7466 24.1406 12.482 25.6876 10.2726 28.3849C9.72578 29.0525 9.82367 30.037 10.4913 30.5838C11.1589 31.1307 12.1434 31.0327 12.6902 30.3652C14.3035 28.3953 16.687 27.2656 19.2293 27.2656H21.0832C23.6255 27.2656 26.009 28.3953 27.6223 30.3651C27.9313 30.7422 28.3798 30.9375 28.832 30.9375C29.1804 30.9375 29.5309 30.8216 29.8213 30.5837Z" fill="#262D34"/>
</g>
<defs>
<clipPath id="clip0_876_5270">
<rect width="40" height="40" fill="white"/>
</clipPath>
</defs>
</svg>
