<svg width="40" height="40" viewBox="0 0 40 40" fill="none" xmlns="http://www.w3.org/2000/svg">
<g clip-path="url(#clip0_876_5231)">
<path d="M31.6667 25H30C29.0783 25 28.3333 24.255 28.3333 23.3333C28.3333 22.4117 29.0783 21.6667 30 21.6667H31.6667C32.5883 21.6667 33.3333 22.4117 33.3333 23.3333C33.3333 24.255 32.5883 25 31.6667 25ZM33.3333 30C33.3333 29.0783 32.5883 28.3333 31.6667 28.3333H30C29.0783 28.3333 28.3333 29.0783 28.3333 30C28.3333 30.9217 29.0783 31.6667 30 31.6667H31.6667C32.5883 31.6667 33.3333 30.9217 33.3333 30ZM26.6667 10C26.6667 9.07833 25.9217 8.33333 25 8.33333H23.3333C22.4117 8.33333 21.6667 9.07833 21.6667 10C21.6667 10.9217 22.4117 11.6667 23.3333 11.6667H25C25.9217 11.6667 26.6667 10.9217 26.6667 10ZM33.3333 10C33.3333 9.07833 32.5883 8.33333 31.6667 8.33333H30C29.0783 8.33333 28.3333 9.07833 28.3333 10C28.3333 10.9217 29.0783 11.6667 30 11.6667H31.6667C32.5883 11.6667 33.3333 10.9217 33.3333 10ZM33.3333 16.6667C33.3333 15.745 32.5883 15 31.6667 15H30C29.0783 15 28.3333 15.745 28.3333 16.6667C28.3333 17.5883 29.0783 18.3333 30 18.3333H31.6667C32.5883 18.3333 33.3333 17.5883 33.3333 16.6667ZM40 31.6667V8.33333C40 3.73833 36.2617 0 31.6667 0H23.3333C18.7383 0 15 3.73833 15 8.33333C15 9.255 15.745 10 16.6667 10C17.5883 10 18.3333 9.255 18.3333 8.33333C18.3333 5.57667 20.5767 3.33333 23.3333 3.33333H31.6667C34.4233 3.33333 36.6667 5.57667 36.6667 8.33333V31.6667C36.6667 34.4233 34.4233 36.6667 31.6667 36.6667H30C29.0783 36.6667 28.3333 37.4117 28.3333 38.3333C28.3333 39.255 29.0783 40 30 40H31.6667C36.2617 40 40 36.2617 40 31.6667ZM26.6667 32.5V25.58C26.6667 23 25.5017 20.61 23.4683 19.0167L18.4683 15.1017C15.445 12.7383 11.2217 12.7367 8.19833 15.1017L3.19833 19.015C1.165 20.6067 0 22.9983 0 25.5783V32.4983C0 36.6333 3.365 39.9983 7.5 39.9983H19.1667C23.3017 39.9983 26.6667 36.635 26.6667 32.5ZM16.415 17.7283L21.415 21.6417C22.6333 22.5967 23.3333 24.0333 23.3333 25.58V32.5C23.3333 34.7983 21.465 36.6667 19.1667 36.6667H7.5C5.20167 36.6667 3.33333 34.7983 3.33333 32.5V25.58C3.33333 24.0317 4.03333 22.5967 5.25167 21.6417L10.2517 17.73C11.1583 17.02 12.245 16.665 13.3333 16.665C14.4217 16.665 15.5083 17.02 16.415 17.7283ZM16.6667 30V26.6667C16.6667 25.7467 15.92 25 15 25H11.6667C10.7467 25 10 25.7467 10 26.6667V30C10 30.92 10.7467 31.6667 11.6667 31.6667H15C15.92 31.6667 16.6667 30.92 16.6667 30Z" fill="#262D34"/>
</g>
<defs>
<clipPath id="clip0_876_5231">
<rect width="40" height="40" fill="white"/>
</clipPath>
</defs>
</svg>
