<svg width="40" height="40" viewBox="0 0 40 40" fill="none" xmlns="http://www.w3.org/2000/svg">
<g clip-path="url(#clip0_876_5263)">
<path d="M26.6667 0H26.45C25.7041 0.00708636 24.9817 0.261689 24.3962 0.723832C23.8106 1.18598 23.3952 1.82949 23.215 2.55333C23.022 3.25806 22.6029 3.87987 22.022 4.32309C21.4411 4.76631 20.7307 5.00639 20 5.00639C19.2693 5.00639 18.5589 4.76631 17.978 4.32309C17.3971 3.87987 16.978 3.25806 16.785 2.55333C16.6048 1.82949 16.1894 1.18598 15.6038 0.723832C15.0183 0.261689 14.2959 0.00708636 13.55 0L13.3333 0C11.124 0.00264643 9.00593 0.88147 7.4437 2.4437C5.88147 4.00593 5.00265 6.12401 5 8.33333V35C5 36.3261 5.52678 37.5979 6.46447 38.5355C7.40215 39.4732 8.67392 40 10 40H13.55C14.2959 39.9929 15.0183 39.7383 15.6038 39.2762C16.1894 38.814 16.6048 38.1705 16.785 37.4467C16.978 36.7419 17.3971 36.1201 17.978 35.6769C18.5589 35.2337 19.2693 34.9936 20 34.9936C20.7307 34.9936 21.4411 35.2337 22.022 35.6769C22.6029 36.1201 23.022 36.7419 23.215 37.4467C23.3952 38.1705 23.8106 38.814 24.3962 39.2762C24.9817 39.7383 25.7041 39.9929 26.45 40H30C31.3261 40 32.5979 39.4732 33.5355 38.5355C34.4732 37.5979 35 36.3261 35 35V8.33333C34.9974 6.12401 34.1185 4.00593 32.5563 2.4437C30.9941 0.88147 28.876 0.00264643 26.6667 0ZM30 36.6667L26.4283 36.5617C26.0369 35.1474 25.1897 33.9017 24.0182 33.018C22.8467 32.1342 21.4163 31.6616 19.9489 31.6736C18.4815 31.6856 17.059 32.1814 15.902 33.0841C14.7451 33.9869 13.9183 35.2462 13.55 36.6667H10C9.55797 36.6667 9.13405 36.4911 8.82149 36.1785C8.50893 35.866 8.33333 35.442 8.33333 35V28.3333H11.6667C12.1087 28.3333 12.5326 28.1577 12.8452 27.8452C13.1577 27.5326 13.3333 27.1087 13.3333 26.6667C13.3333 26.2246 13.1577 25.8007 12.8452 25.4882C12.5326 25.1756 12.1087 25 11.6667 25H8.33333V8.33333C8.33333 7.00725 8.86012 5.73548 9.7978 4.7978C10.7355 3.86012 12.0073 3.33333 13.3333 3.33333L13.5717 3.43833C13.962 4.84404 14.8017 6.08341 15.9624 6.96725C17.1231 7.8511 18.5411 8.33087 20 8.33333C21.4786 8.32075 22.9126 7.8255 24.0838 6.92294C25.2551 6.02037 26.0994 4.75991 26.4883 3.33333H26.6667C27.9927 3.33333 29.2645 3.86012 30.2022 4.7978C31.1399 5.73548 31.6667 7.00725 31.6667 8.33333V25H28.3333C27.8913 25 27.4674 25.1756 27.1548 25.4882C26.8423 25.8007 26.6667 26.2246 26.6667 26.6667C26.6667 27.1087 26.8423 27.5326 27.1548 27.8452C27.4674 28.1577 27.8913 28.3333 28.3333 28.3333H31.6667V35C31.6667 35.442 31.4911 35.866 31.1785 36.1785C30.866 36.4911 30.442 36.6667 30 36.6667Z" fill="#262D34"/>
<path d="M21.667 25H18.3337C17.8916 25 17.4677 25.1756 17.1551 25.4882C16.8426 25.8007 16.667 26.2246 16.667 26.6667C16.667 27.1087 16.8426 27.5326 17.1551 27.8452C17.4677 28.1577 17.8916 28.3333 18.3337 28.3333H21.667C22.109 28.3333 22.5329 28.1577 22.8455 27.8452C23.1581 27.5326 23.3337 27.1087 23.3337 26.6667C23.3337 26.2246 23.1581 25.8007 22.8455 25.4882C22.5329 25.1756 22.109 25 21.667 25Z" fill="#262D34"/>
</g>
<defs>
<clipPath id="clip0_876_5263">
<rect width="40" height="40" fill="white"/>
</clipPath>
</defs>
</svg>
