<svg width="40" height="40" viewBox="0 0 40 40" fill="none" xmlns="http://www.w3.org/2000/svg">
<g clip-path="url(#clip0_876_5214)">
<path d="M15 20C20.515 20 25 15.515 25 10C25 4.485 20.515 0 15 0C9.485 0 5 4.485 5 10C5 15.515 9.485 20 15 20ZM15 3.33333C18.6767 3.33333 21.6667 6.32333 21.6667 10C21.6667 13.6767 18.6767 16.6667 15 16.6667C11.3233 16.6667 8.33333 13.6767 8.33333 10C8.33333 6.32333 11.3233 3.33333 15 3.33333ZM17.9167 27.0333C16.97 26.79 15.9883 26.6667 15 26.6667C8.56667 26.6667 3.33333 31.9 3.33333 38.3333C3.33333 39.2533 2.58667 40 1.66667 40C0.746667 40 0 39.2533 0 38.3333C0 30.0633 6.73 23.3333 15 23.3333C16.27 23.3333 17.5317 23.4917 18.75 23.8067C19.6417 24.0367 20.1767 24.945 19.9483 25.8367C19.72 26.7283 18.815 27.2633 17.9183 27.035L17.9167 27.0333ZM38.535 19.7983C36.645 17.9083 33.3517 17.9083 31.4633 19.7983L20.285 30.9767C19.0267 32.235 18.3317 33.91 18.3317 35.6917V38.335C18.3317 39.255 19.0783 40.0017 19.9983 40.0017H22.6417C24.4233 40.0017 26.0967 39.3067 27.355 38.0483L38.5333 26.87C39.4783 25.925 39.9983 24.67 39.9983 23.3333C39.9983 21.9967 39.4783 20.7417 38.535 19.7983ZM36.1767 24.5117L24.9967 35.69C24.3683 36.32 23.5317 36.6667 22.64 36.6667H21.6633V35.69C21.6633 34.8 22.01 33.9633 22.64 33.3333L33.82 22.155C34.4483 21.525 35.5467 21.525 36.1767 22.155C36.4917 22.4683 36.665 22.8867 36.665 23.3333C36.665 23.78 36.4917 24.1967 36.1767 24.5117Z" fill="#262D34"/>
</g>
<defs>
<clipPath id="clip0_876_5214">
<rect width="40" height="40" fill="white"/>
</clipPath>
</defs>
</svg>
