<svg width="493" height="493" viewBox="0 0 493 493" fill="none" xmlns="http://www.w3.org/2000/svg">
<path d="M246.5 2.08C111.725 2.08 2.08 111.725 2.08 246.5C2.08 381.275 111.725 490.92 246.5 490.92C381.275 490.92 490.92 381.275 490.92 246.5C490.92 111.725 381.275 2.08 246.5 2.08ZM246.5 463.985C126.581 463.985 29.0152 366.419 29.0152 246.5C29.0152 126.581 126.581 29.0152 246.5 29.0152C366.419 29.0152 463.985 126.581 463.985 246.5C463.985 366.419 366.419 463.985 246.5 463.985Z" fill="#262D34" stroke="#262D34" stroke-width="3.84"/>
<path d="M119 254C119 267.8 130.2 279 144 279H286.2L249.3 315.9C239.5 325.7 239.5 341.5 249.3 351.3C254.2 356.2 260.6 358.6 267 358.6C273.4 358.6 279.8 356.2 284.7 351.3L347.6 288.4C356.8 279.2 361.8 267 361.8 254.1C361.8 241.2 356.7 228.9 347.6 219.8L284.7 156.9C274.9 147.1 259.1 147.1 249.3 156.9C239.5 166.7 239.5 182.5 249.3 192.3L286.2 229.2H144C130.2 229 119 240.2 119 254Z" fill="#262D34"/>
</svg>
