<svg width="40" height="40" viewBox="0 0 40 40" fill="none" xmlns="http://www.w3.org/2000/svg">
<path d="M35.342 15.9424L29.8319 10.401C29.5639 10.1408 29.2051 9.9968 28.8327 10.0001C28.4602 10.0033 28.1039 10.1536 27.8405 10.4184C27.5772 10.6833 27.4278 11.0416 27.4245 11.4162C27.4213 11.7907 27.5645 12.1516 27.8232 12.421L33.3334 17.9624C33.4971 18.1303 33.6402 18.3174 33.7596 18.5196C33.7383 18.5196 33.7212 18.5082 33.6999 18.5082L11.4205 18.5539C11.0438 18.5539 10.6825 18.7044 10.4161 18.9723C10.1497 19.2402 10 19.6036 10 19.9824C10 20.3613 10.1497 20.7247 10.4161 20.9926C10.6825 21.2605 11.0438 21.411 11.4205 21.411L33.6914 21.3653C33.7312 21.3653 33.7639 21.3453 33.8022 21.3424C33.6762 21.5841 33.5164 21.8064 33.3278 22.0024L27.8176 27.5439C27.6819 27.6757 27.5737 27.8333 27.4992 28.0076C27.4248 28.1819 27.3856 28.3693 27.3839 28.559C27.3823 28.7487 27.4182 28.9368 27.4897 29.1124C27.5611 29.2879 27.6666 29.4474 27.8 29.5816C27.9333 29.7157 28.0919 29.8218 28.2665 29.8936C28.4411 29.9654 28.6281 30.0016 28.8168 29.9999C29.0054 29.9983 29.1918 29.9589 29.3651 29.884C29.5384 29.8091 29.6951 29.7003 29.8262 29.5639L35.3364 24.0224C36.4016 22.9509 37 21.4977 37 19.9824C37 18.4672 36.4016 17.014 35.3364 15.9424H35.342Z" fill="#FE724C"/>
<path d="M12.625 34.1667H9.875C8.78098 34.1667 7.73177 33.7189 6.95818 32.9219C6.1846 32.1248 5.75 31.0438 5.75 29.9167V10.0833C5.75 8.95616 6.1846 7.87516 6.95818 7.07813C7.73177 6.2811 8.78098 5.83333 9.875 5.83333H12.625C12.9897 5.83333 13.3394 5.68408 13.5973 5.4184C13.8551 5.15272 14 4.79239 14 4.41667C14 4.04094 13.8551 3.68061 13.5973 3.41493C13.3394 3.14926 12.9897 3 12.625 3H9.875C8.05231 3.00225 6.30489 3.74925 5.01605 5.07714C3.72721 6.40504 3.00218 8.20541 3 10.0833L3 29.9167C3.00218 31.7946 3.72721 33.595 5.01605 34.9229C6.30489 36.2508 8.05231 36.9977 9.875 37H12.625C12.9897 37 13.3394 36.8507 13.5973 36.5851C13.8551 36.3194 14 35.9591 14 35.5833C14 35.2076 13.8551 34.8473 13.5973 34.5816C13.3394 34.3159 12.9897 34.1667 12.625 34.1667Z" fill="#FE724C"/>
</svg>
