<svg width="40" height="40" viewBox="0 0 40 40" fill="none" xmlns="http://www.w3.org/2000/svg">
<g clip-path="url(#clip0_876_5205)">
<path d="M20 0.1625C9.06144 0.1625 0.1625 9.06144 0.1625 20C0.1625 30.9386 9.06144 39.8375 20 39.8375C30.9386 39.8375 39.8375 30.9386 39.8375 20C39.8375 9.06144 30.9386 0.1625 20 0.1625ZM20 37.6625C10.2611 37.6625 2.3375 29.7389 2.3375 20C2.3375 10.2611 10.2611 2.3375 20 2.3375C29.7389 2.3375 37.6625 10.2611 37.6625 20C37.6625 29.7389 29.7389 37.6625 20 37.6625Z" fill="#262D34" stroke="#262D34" stroke-width="0.3"/>
<path d="M28.0199 16.6775L23.059 15.9561L20.841 11.4602C20.5236 10.8206 19.4762 10.8206 19.1588 11.4602L16.9408 15.9561L11.9799 16.6775C11.6259 16.7288 11.3329 16.9766 11.223 17.3159C11.1119 17.6553 11.2047 18.0276 11.4598 18.2766L15.0499 21.7751L14.2015 26.7166C14.1417 27.0681 14.2858 27.4233 14.5751 27.6333C14.8619 27.8457 15.2452 27.8701 15.5614 27.7053L19.9999 25.3726L24.4384 27.7053C24.5751 27.7773 24.7252 27.8127 24.8742 27.8127C25.0682 27.8127 25.2623 27.7529 25.4247 27.6333C25.714 27.4233 25.858 27.0681 25.7982 26.7166L24.9498 21.7751L28.5399 18.2766C28.7951 18.0276 28.8878 17.6553 28.7767 17.3159C28.6669 16.9766 28.3739 16.7288 28.0199 16.6775ZM23.2885 20.7766C23.0675 20.9915 22.9662 21.3027 23.0187 21.6067L23.629 25.1614L20.4357 23.4829C20.299 23.4109 20.15 23.3755 19.9999 23.3755C19.8497 23.3755 19.7008 23.4109 19.5641 23.4829L16.3707 25.1614L16.9811 21.6067C17.0336 21.3027 16.9323 20.9915 16.7113 20.7766L14.1283 18.2595L17.6976 17.7407C18.004 17.6968 18.2677 17.5051 18.4044 17.228L19.9999 13.9944L21.5953 17.228C21.7321 17.5051 21.9957 17.6968 22.3021 17.7407L25.8715 18.2595L23.2885 20.7766Z" fill="#262D34"/>
</g>
<defs>
<clipPath id="clip0_876_5205">
<rect width="40" height="40" fill="white"/>
</clipPath>
</defs>
</svg>
