<svg width="41" height="40" viewBox="0 0 41 40" fill="none" xmlns="http://www.w3.org/2000/svg">
<path d="M12.4525 35.5673H29.1191C32.1893 35.5673 34.6275 34.6836 36.2981 33.013C37.9688 31.3423 38.8525 28.9041 38.8525 25.834V17.5007C38.8525 16.7345 38.2187 16.1007 37.4525 16.1007C36.6863 16.1007 36.0525 16.7345 36.0525 17.5007V25.834C36.0525 28.1953 35.4787 29.9207 34.3422 31.0571C33.2058 32.1935 31.4804 32.7673 29.1191 32.7673H12.4525C10.0912 32.7673 8.36579 32.1935 7.22937 31.0571C6.09296 29.9207 5.51914 28.1953 5.51914 25.834V14.1673C5.51914 11.806 6.09296 10.0806 7.22937 8.94422C8.36579 7.8078 10.0912 7.23398 12.4525 7.23398H24.1191C24.8853 7.23398 25.5191 6.60016 25.5191 5.83398C25.5191 5.06781 24.8853 4.43398 24.1191 4.43398H12.4525C9.38233 4.43398 6.94414 5.31769 5.27349 6.98834C3.60285 8.65898 2.71914 11.0972 2.71914 14.1673V25.834C2.71914 28.9041 3.60285 31.3423 5.27349 33.013C6.94414 34.6836 9.38233 35.5673 12.4525 35.5673Z" fill="#262D34" stroke="#262D34" stroke-width="0.3"/>
<path d="M11.5729 16.0817L11.5729 16.0817L11.5739 16.0825L16.7893 20.2482C16.7895 20.2484 16.7897 20.2485 16.7899 20.2487C17.9038 21.1567 19.3551 21.5986 20.7841 21.5986C22.2126 21.5986 23.6643 21.1569 24.762 20.2485L26.7262 18.6837C27.344 18.2144 27.4351 17.3193 26.9522 16.7227C26.4824 16.1049 25.5865 16.0144 24.9901 16.4985C24.9899 16.4986 24.9897 16.4988 24.9895 16.4989L23.024 18.0647L23.0236 18.065C22.4216 18.5481 21.6025 18.7945 20.7758 18.7945C19.9491 18.7945 19.13 18.5481 18.528 18.065L18.5277 18.0648L13.312 13.8989C13.3119 13.8988 13.3117 13.8986 13.3115 13.8985C12.7107 13.4108 11.8338 13.5265 11.3511 14.1207C10.8629 14.7216 10.9785 15.5988 11.5729 16.0817Z" fill="#262D34" stroke="#262D34" stroke-width="0.3"/>
<path d="M27.7182 9.16667C27.7182 12.2328 30.2187 14.7333 33.2848 14.7333C36.351 14.7333 38.8515 12.2328 38.8515 9.16667C38.8515 6.10049 36.351 3.6 33.2848 3.6C30.2187 3.6 27.7182 6.10049 27.7182 9.16667ZM30.5182 9.16667C30.5182 7.64951 31.7677 6.4 33.2848 6.4C34.802 6.4 36.0515 7.64951 36.0515 9.16667C36.0515 10.6838 34.802 11.9333 33.2848 11.9333C31.7677 11.9333 30.5182 10.6838 30.5182 9.16667Z" fill="#262D34" stroke="#262D34" stroke-width="0.3"/>
</svg>
