<svg width="40" height="40" viewBox="0 0 40 40" fill="none" xmlns="http://www.w3.org/2000/svg">
<g clip-path="url(#clip0_876_5289)">
<path d="M37.5916 22.7701L34.425 11.3768C33.4968 8.03902 31.4795 5.10728 28.6939 3.04759C25.9082 0.98789 22.514 -0.0815542 19.0507 0.00924597C15.5875 0.100046 12.254 1.34588 9.58008 3.54872C6.90617 5.75155 5.04531 8.78497 4.2933 12.1668L1.84164 23.1918C1.57083 24.41 1.57709 25.6735 1.85996 26.889C2.14283 28.1045 2.69508 29.2409 3.47594 30.2144C4.2568 31.1879 5.24634 31.9735 6.37149 32.5134C7.49664 33.0532 8.72868 33.3335 9.97664 33.3335H11.8333C12.2158 35.2173 13.2379 36.9109 14.7262 38.1274C16.2146 39.3439 18.0777 40.0085 20 40.0085C21.9222 40.0085 23.7854 39.3439 25.2737 38.1274C26.7621 36.9109 27.7841 35.2173 28.1666 33.3335H29.5633C30.848 33.3336 32.1153 33.0366 33.2662 32.4659C34.4172 31.8951 35.4206 31.066 36.198 30.0432C36.9755 29.0205 37.5059 27.8319 37.748 26.5702C37.99 25.3085 37.9354 24.008 37.5916 22.7701ZM20 36.6668C18.9695 36.6625 17.9656 36.34 17.1255 35.7433C16.2854 35.1466 15.6501 34.305 15.3066 33.3335H24.6933C24.3498 34.305 23.7146 35.1466 22.8745 35.7433C22.0344 36.34 21.0304 36.6625 20 36.6668ZM33.5433 28.0251C33.0789 28.6412 32.4772 29.1406 31.786 29.4834C31.0948 29.8263 30.3332 30.0032 29.5616 30.0001H9.97664C9.22794 30 8.48884 29.8317 7.81387 29.5078C7.13891 29.1838 6.54531 28.7124 6.07691 28.1283C5.6085 27.5442 5.27724 26.8624 5.10757 26.1332C4.93791 25.404 4.93417 24.646 5.09664 23.9151L7.54664 12.8885C8.13722 10.2321 9.59882 7.84947 11.6991 6.11922C13.7993 4.38896 16.4177 3.41042 19.1379 3.33916C21.8582 3.2679 24.5242 4.108 26.7121 5.72592C28.9001 7.34384 30.4844 9.64671 31.2133 12.2685L34.38 23.6618C34.5892 24.4041 34.6225 25.1849 34.4773 25.9423C34.3321 26.6998 34.0123 27.4129 33.5433 28.0251Z" fill="#262D34"/>
</g>
<defs>
<clipPath id="clip0_876_5289">
<rect width="40" height="40" fill="white"/>
</clipPath>
</defs>
</svg>
