<svg width="40" height="40" viewBox="0 0 40 40" fill="none" xmlns="http://www.w3.org/2000/svg">
<path d="M25.0007 37.9173H15.0007C5.95065 37.9173 2.08398 34.0507 2.08398 25.0007V15.0007C2.08398 5.95065 5.95065 2.08398 15.0007 2.08398H23.334C24.0173 2.08398 24.584 2.65065 24.584 3.33398C24.584 4.01732 24.0173 4.58398 23.334 4.58398H15.0007C7.31732 4.58398 4.58398 7.31732 4.58398 15.0007V25.0007C4.58398 32.684 7.31732 35.4173 15.0007 35.4173H25.0007C32.684 35.4173 35.4173 32.684 35.4173 25.0007V16.6673C35.4173 15.984 35.984 15.4173 36.6673 15.4173C37.3507 15.4173 37.9173 15.984 37.9173 16.6673V25.0007C37.9173 34.0507 34.0507 37.9173 25.0007 37.9173Z" fill="#262D34"/>
<path d="M36.6673 17.9188H30.0007C24.3007 17.9188 22.084 15.7021 22.084 10.0021V3.33543C22.084 2.83543 22.384 2.36876 22.8507 2.18543C23.3173 1.98543 23.8507 2.1021 24.2173 2.4521L37.5507 15.7854C37.9007 16.1354 38.0173 16.6854 37.8173 17.1521C37.6173 17.6188 37.1673 17.9188 36.6673 17.9188ZM24.584 6.3521V10.0021C24.584 14.3021 25.7007 15.4188 30.0007 15.4188H33.6507L24.584 6.3521Z" fill="#262D34"/>
<path d="M21.666 22.916H11.666C10.9827 22.916 10.416 22.3493 10.416 21.666C10.416 20.9827 10.9827 20.416 11.666 20.416H21.666C22.3493 20.416 22.916 20.9827 22.916 21.666C22.916 22.3493 22.3493 22.916 21.666 22.916Z" fill="#262D34"/>
<path d="M18.3327 29.584H11.666C10.9827 29.584 10.416 29.0173 10.416 28.334C10.416 27.6507 10.9827 27.084 11.666 27.084H18.3327C19.016 27.084 19.5827 27.6507 19.5827 28.334C19.5827 29.0173 19.016 29.584 18.3327 29.584Z" fill="#262D34"/>
</svg>
