<svg width="40" height="40" viewBox="0 0 40 40" fill="none" xmlns="http://www.w3.org/2000/svg">
<path d="M30.8363 22.8763L31.0093 22.9768C31.0828 22.8501 31.1307 22.7101 31.1502 22.5649C31.1697 22.4197 31.1604 22.2721 31.1228 22.1305C31.0853 21.9889 31.0202 21.8561 30.9313 21.7397C30.8424 21.6232 30.7314 21.5254 30.6047 21.4518L30.5043 21.6248L30.6047 21.4518C30.478 21.3783 30.3381 21.3304 30.1929 21.3109C30.0477 21.2914 29.9001 21.3007 29.7585 21.3383C29.6178 21.3756 29.4857 21.4401 29.3698 21.5281L28.7719 21.96L28.7719 21.96L28.7709 21.9607C27.5968 22.8197 26.2367 23.3898 24.8011 23.6247L24.8005 23.6248L24.1346 23.7358C24.1345 23.7358 24.1344 23.7359 24.1343 23.7359C23.8766 23.7779 23.6422 23.9102 23.4731 24.1092C23.3039 24.3082 23.2111 24.5609 23.2112 24.8221C23.2112 24.8222 23.2112 24.8222 23.2112 24.8222L23.2112 30.9328C23.2061 32.1412 23.5499 33.3253 24.2013 34.3431C24.8528 35.361 25.7842 36.1692 26.8837 36.6708L26.9667 36.4888L26.8838 36.6708L29.5393 37.8819L29.5409 37.8826C29.6835 37.9461 29.838 37.9785 29.994 37.9777C30.1379 37.9872 30.2822 37.9686 30.419 37.9229L30.429 37.9196L30.4386 37.9152L33.0942 36.7041L33.0942 36.7041C34.1937 36.2026 35.1252 35.3943 35.7766 34.3764C36.428 33.3587 36.7718 32.1745 36.7667 30.9662V24.8222V24.8221L30.8363 22.8763ZM30.8363 22.8763L31.0093 22.9768C30.9357 23.1035 30.8379 23.2144 30.7214 23.3033L30.7191 23.3051L30.7191 23.3051L30.1191 23.7495L30.1164 23.7515L30.1164 23.7515C28.7121 24.756 27.0999 25.4303 25.4001 25.725V30.9331C25.4012 31.7127 25.6264 32.4756 26.0488 33.1308C26.4713 33.7861 27.0732 34.3061 27.7829 34.629L27.7844 34.6297L29.9223 35.6238L32.0602 34.6297L32.0617 34.629L32.0617 34.629C32.7714 34.3061 33.3733 33.7861 33.7958 33.1308C34.2182 32.4755 34.4434 31.7126 34.4445 30.933V25.7225C34.05 25.648 33.6597 25.5522 33.2754 25.4357L33.2731 25.4351L33.2731 25.435C32.9942 25.3469 32.7617 25.1515 32.6268 24.8919C32.4919 24.6322 32.4656 24.3297 32.5538 24.0507C32.642 23.7718 32.8374 23.5393 33.097 23.4044C33.3565 23.2696 33.6588 23.2433 33.9376 23.3313C34.3435 23.4576 34.7576 23.5557 35.177 23.6248L35.1774 23.6248L35.8433 23.7358M30.8363 22.8763L35.8433 23.7358M35.8433 23.7358C35.8434 23.7358 35.8435 23.7359 35.8437 23.7359L35.8433 23.7358Z" fill="#F0000" stroke="#262D34" stroke-width="0.4"/>
<path d="M21.2001 37.9774H21.6831L21.5948 37.8891C21.7344 37.834 21.8626 37.7506 21.9708 37.6425C22.1781 37.4351 22.2946 37.1539 22.2946 36.8607C22.2946 36.5675 22.1781 36.2863 21.9708 36.079C21.7634 35.8716 21.4822 35.7551 21.189 35.7551H6.74459C6.57305 35.7552 6.40321 35.7212 6.24486 35.6553C6.0865 35.5893 5.94276 35.4927 5.82192 35.371L5.67998 35.5119L5.82192 35.371C5.70108 35.2493 5.60552 35.1048 5.54076 34.946C5.476 34.7871 5.44331 34.617 5.44459 34.4455V34.444V8.98848H5.44467L5.4445 8.98252C5.43918 8.80417 5.47063 8.62663 5.5369 8.46096C5.60317 8.2953 5.70283 8.14504 5.82968 8.01956L5.82969 8.01957L5.83115 8.01809L9.18632 4.62959C9.18639 4.62952 9.18646 4.62945 9.18653 4.62938C9.31245 4.50295 9.46286 4.40355 9.62855 4.33728C9.79432 4.27097 9.97189 4.23922 10.1504 4.24397L10.1504 4.24404H10.1557H28.4549C28.8007 4.24677 29.1315 4.38601 29.3751 4.63144C29.6189 4.87705 29.7557 5.20908 29.7557 5.55514V16.3996C29.7557 16.6928 29.8722 16.974 30.0795 17.1813C30.2868 17.3887 30.568 17.5051 30.8612 17.5051C31.1545 17.5051 31.4357 17.3887 31.643 17.1813C31.8503 16.974 31.9668 16.6928 31.9668 16.3996V5.55515C31.9668 4.61805 31.5945 3.71934 30.9319 3.05671L30.7925 3.19614L30.9319 3.05671C30.2693 2.39408 29.3706 2.02182 28.4335 2.02182H10.1566C9.68992 2.0177 9.22705 2.10607 8.79471 2.28183C8.36209 2.45771 7.96863 2.71761 7.63707 3.04649L7.63705 3.04647L7.63488 3.0487L4.30373 6.45758C3.64202 7.09433 3.25419 7.96373 3.22248 8.88158L3.22236 8.88157V8.88848V34.444C3.22236 35.3811 3.59462 36.2799 4.25725 36.9425C4.91988 37.6051 5.8186 37.9774 6.7557 37.9774H21.2001Z" fill="#262D34" stroke="#262D34" stroke-width="0.4"/>
<path d="M21.2 11.2662H13.9778C13.7377 11.2662 13.5073 11.1708 13.3375 11.001C13.1677 10.8311 13.0723 10.6008 13.0723 10.3606C13.0723 10.1205 13.1677 9.89013 13.3375 9.72031C13.5073 9.55048 13.7377 9.45508 13.9778 9.45508H21.2C21.4402 9.45508 21.6705 9.55048 21.8404 9.72031C22.0102 9.89013 22.1056 10.1205 22.1056 10.3606C22.1056 10.6008 22.0102 10.8311 21.8404 11.001C21.6705 11.1708 21.4402 11.2662 21.2 11.2662Z" fill="#262D34"/>
<path d="M24.8109 17.2887H10.3665C10.1263 17.2887 9.89599 17.1932 9.72617 17.0234C9.55634 16.8536 9.46094 16.6233 9.46094 16.3831C9.46094 16.1429 9.55634 15.9126 9.72617 15.7428C9.89599 15.5729 10.1263 15.4775 10.3665 15.4775H24.8109C25.0511 15.4775 25.2814 15.5729 25.4513 15.7428C25.6211 15.9126 25.7165 16.1429 25.7165 16.3831C25.7165 16.6233 25.6211 16.8536 25.4513 17.0234C25.2814 17.1932 25.0511 17.2887 24.8109 17.2887Z" fill="#262D34"/>
<path d="M18.7998 23.3336H10.3665C10.1263 23.3336 9.89599 23.2382 9.72617 23.0683C9.55634 22.8985 9.46094 22.6682 9.46094 22.428C9.46094 22.1878 9.55634 21.9575 9.72617 21.7877C9.89599 21.6179 10.1263 21.5225 10.3665 21.5225H18.7998C19.04 21.5225 19.2703 21.6179 19.4402 21.7877C19.61 21.9575 19.7054 22.1878 19.7054 22.428C19.7054 22.6682 19.61 22.8985 19.4402 23.0683C19.2703 23.2382 19.04 23.3336 18.7998 23.3336Z" fill="#262D34"/>
<path d="M18.7998 29.3443H10.3665C10.1263 29.3443 9.89599 29.2489 9.72617 29.0791C9.55634 28.9093 9.46094 28.6789 9.46094 28.4388C9.46094 28.1986 9.55634 27.9683 9.72617 27.7984C9.89599 27.6286 10.1263 27.5332 10.3665 27.5332H18.7998C19.04 27.5332 19.2703 27.6286 19.4402 27.7984C19.61 27.9683 19.7054 28.1986 19.7054 28.4388C19.7054 28.6789 19.61 28.9093 19.4402 29.0791C19.2703 29.2489 19.04 29.3443 18.7998 29.3443Z" fill="#262D34"/>
</svg>
