<svg width="40" height="40" viewBox="0 0 40 40" fill="none" xmlns="http://www.w3.org/2000/svg">
<g clip-path="url(#clip0_876_5276)">
<path d="M20 26.6667C18.6815 26.6667 17.3925 26.2757 16.2962 25.5431C15.1999 24.8106 14.3454 23.7694 13.8408 22.5512C13.3362 21.3331 13.2042 19.9926 13.4614 18.6994C13.7187 17.4062 14.3536 16.2183 15.286 15.286C16.2183 14.3536 17.4062 13.7187 18.6994 13.4614C19.9926 13.2042 21.333 13.3362 22.5512 13.8408C23.7694 14.3454 24.8106 15.1999 25.5431 16.2962C26.2757 17.3925 26.6667 18.6815 26.6667 20C26.6667 21.7681 25.9643 23.4638 24.714 24.7141C23.4638 25.9643 21.7681 26.6667 20 26.6667ZM20 16.6667C19.3407 16.6667 18.6963 16.8622 18.1481 17.2284C17.5999 17.5947 17.1727 18.1153 16.9204 18.7244C16.6681 19.3335 16.6021 20.0037 16.7307 20.6503C16.8593 21.2969 17.1768 21.8909 17.643 22.357C18.1092 22.8232 18.7031 23.1407 19.3497 23.2693C19.9963 23.3979 20.6665 23.3319 21.2756 23.0796C21.8847 22.8273 22.4053 22.4001 22.7716 21.8519C23.1378 21.3037 23.3333 20.6593 23.3333 20C23.3333 19.1159 22.9821 18.2681 22.357 17.643C21.7319 17.0179 20.8841 16.6667 20 16.6667ZM30 38.3333C30 35.6812 28.9464 33.1376 27.0711 31.2623C25.1957 29.3869 22.6522 28.3333 20 28.3333C17.3478 28.3333 14.8043 29.3869 12.9289 31.2623C11.0536 33.1376 10 35.6812 10 38.3333C10 38.7754 10.1756 39.1993 10.4882 39.5119C10.8007 39.8244 11.2246 40 11.6667 40C12.1087 40 12.5326 39.8244 12.8452 39.5119C13.1577 39.1993 13.3333 38.7754 13.3333 38.3333C13.3333 36.5652 14.0357 34.8695 15.286 33.6193C16.5362 32.3691 18.2319 31.6667 20 31.6667C21.7681 31.6667 23.4638 32.3691 24.714 33.6193C25.9643 34.8695 26.6667 36.5652 26.6667 38.3333C26.6667 38.7754 26.8423 39.1993 27.1548 39.5119C27.4674 39.8244 27.8913 40 28.3333 40C28.7754 40 29.1993 39.8244 29.5118 39.5119C29.8244 39.1993 30 38.7754 30 38.3333ZM30 13.3333C28.6815 13.3333 27.3925 12.9423 26.2962 12.2098C25.1999 11.4773 24.3454 10.4361 23.8408 9.21789C23.3362 7.99972 23.2042 6.65928 23.4614 5.36607C23.7187 4.07286 24.3536 2.88497 25.286 1.95262C26.2183 1.02027 27.4062 0.385336 28.6994 0.128101C29.9926 -0.129134 31.333 0.00288854 32.5512 0.507473C33.7694 1.01206 34.8106 1.86654 35.5431 2.96287C36.2757 4.0592 36.6667 5.34813 36.6667 6.66667C36.6667 8.43478 35.9643 10.1305 34.714 11.3807C33.4638 12.631 31.7681 13.3333 30 13.3333ZM30 3.33334C29.3407 3.33334 28.6963 3.52883 28.1481 3.8951C27.5999 4.26138 27.1727 4.78197 26.9204 5.39106C26.6681 6.00015 26.6021 6.67037 26.7307 7.31697C26.8593 7.96357 27.1768 8.55752 27.643 9.02369C28.1092 9.48987 28.7031 9.80734 29.3497 9.93596C29.9963 10.0646 30.6665 9.99856 31.2756 9.74627C31.8847 9.49398 32.4053 9.06673 32.7716 8.51857C33.1378 7.97041 33.3333 7.32594 33.3333 6.66667C33.3333 5.78262 32.9821 4.93477 32.357 4.30965C31.7319 3.68453 30.8841 3.33334 30 3.33334ZM40 25C39.9974 22.3487 38.9429 19.8067 37.0681 17.9319C35.1934 16.0571 32.6514 15.0027 30 15C29.558 15 29.134 15.1756 28.8215 15.4882C28.5089 15.8007 28.3333 16.2246 28.3333 16.6667C28.3333 17.1087 28.5089 17.5326 28.8215 17.8452C29.134 18.1577 29.558 18.3333 30 18.3333C31.7681 18.3333 33.4638 19.0357 34.714 20.286C35.9643 21.5362 36.6667 23.2319 36.6667 25C36.6667 25.442 36.8423 25.866 37.1548 26.1785C37.4674 26.4911 37.8913 26.6667 38.3333 26.6667C38.7754 26.6667 39.1993 26.4911 39.5118 26.1785C39.8244 25.866 40 25.442 40 25ZM10 13.3333C8.68146 13.3333 7.39253 12.9423 6.2962 12.2098C5.19987 11.4773 4.34539 10.4361 3.8408 9.21789C3.33622 7.99972 3.2042 6.65928 3.46143 5.36607C3.71867 4.07286 4.3536 2.88497 5.28595 1.95262C6.2183 1.02027 7.40619 0.385336 8.6994 0.128101C9.9926 -0.129134 11.333 0.00288854 12.5512 0.507473C13.7694 1.01206 14.8106 1.86654 15.5431 2.96287C16.2757 4.0592 16.6667 5.34813 16.6667 6.66667C16.6667 8.43478 15.9643 10.1305 14.714 11.3807C13.4638 12.631 11.7681 13.3333 10 13.3333ZM10 3.33334C9.34073 3.33334 8.69626 3.52883 8.1481 3.8951C7.59994 4.26138 7.17269 4.78197 6.9204 5.39106C6.66811 6.00015 6.6021 6.67037 6.73072 7.31697C6.85933 7.96357 7.1768 8.55752 7.64298 9.02369C8.10915 9.48987 8.7031 9.80734 9.3497 9.93596C9.9963 10.0646 10.6665 9.99856 11.2756 9.74627C11.8847 9.49398 12.4053 9.06673 12.7716 8.51857C13.1378 7.97041 13.3333 7.32594 13.3333 6.66667C13.3333 5.78262 12.9821 4.93477 12.357 4.30965C11.7319 3.68453 10.8841 3.33334 10 3.33334ZM3.33333 25C3.33333 23.2319 4.03571 21.5362 5.28595 20.286C6.5362 19.0357 8.23189 18.3333 10 18.3333C10.442 18.3333 10.8659 18.1577 11.1785 17.8452C11.4911 17.5326 11.6667 17.1087 11.6667 16.6667C11.6667 16.2246 11.4911 15.8007 11.1785 15.4882C10.8659 15.1756 10.442 15 10 15C7.34865 15.0027 4.80665 16.0571 2.93186 17.9319C1.05707 19.8067 0.00264738 22.3487 0 25C0 25.442 0.175595 25.866 0.488155 26.1785C0.800716 26.4911 1.22464 26.6667 1.66667 26.6667C2.10869 26.6667 2.53262 26.4911 2.84518 26.1785C3.15774 25.866 3.33333 25.442 3.33333 25Z" fill="#262D34"/>
</g>
<defs>
<clipPath id="clip0_876_5276">
<rect width="40" height="40" fill="white"/>
</clipPath>
</defs>
</svg>
