<svg width="513" height="485" viewBox="0 0 513 485" fill="none" xmlns="http://www.w3.org/2000/svg">
<path d="M403.228 266.066C381.458 266.066 360.415 272.414 342.336 284.472C325.458 295.767 312.636 311.153 304.433 328.886L300.905 320.283C297.468 311.935 287.919 307.916 279.535 311.372C271.168 314.809 267.185 324.376 270.623 332.742L289.265 378.102C291.793 384.267 297.649 388.05 303.906 388.25C306.143 388.323 308.435 387.923 310.635 387.014L356.013 368.371C364.38 364.934 368.363 355.367 364.925 347.001C361.488 338.635 351.939 334.633 343.555 338.089L334.552 341.781C340.299 329.777 349.066 319.374 360.542 311.699C373.182 303.278 387.951 298.822 403.246 298.822C445.405 298.822 479.707 333.124 479.707 375.283C479.707 417.314 445.405 451.507 403.101 451.507C402.883 451.507 402.646 451.507 402.41 451.507C382.312 451.507 363.397 443.559 349.12 429.1C342.773 422.661 332.406 422.607 325.986 428.936C319.547 435.283 319.474 445.65 325.822 452.07C346.301 472.841 373.473 484.244 402.264 484.244C462.647 484.517 512.444 435.684 512.444 375.283C512.426 315.045 463.447 266.066 403.228 266.066Z" fill="black"/>
<path d="M286.393 436.501H71.5985C50.5373 436.501 33.4046 419.369 33.4046 398.307V70.9315C33.4046 49.8703 50.5373 32.7376 71.5985 32.7376H147.713V133.606C147.713 148.047 159.463 159.796 173.903 159.796H296.669C311.11 159.796 322.86 148.047 322.86 133.606V32.7376H398.974C420.036 32.7376 437.168 49.8703 437.168 70.9315V245.168C437.168 254.207 444.498 261.537 453.537 261.537C462.576 261.537 469.906 254.207 469.906 245.168V70.9315C469.906 31.8282 438.078 0 398.974 0H71.5985C32.4952 0 0.666992 31.8282 0.666992 70.9315V398.307C0.666992 437.411 32.4952 469.239 71.5985 469.239H286.393C295.433 469.239 302.762 461.909 302.762 452.87C302.762 443.831 295.433 436.501 286.393 436.501ZM290.122 127.058H180.451V32.7376H290.122V127.058Z" fill="black"/>
<path d="M94.9879 358.55C85.9487 358.55 78.6191 365.879 78.6191 374.919C78.6191 383.958 85.9487 391.287 94.9879 391.287H162.627C171.667 391.287 178.996 383.958 178.996 374.919C178.996 365.879 171.667 358.55 162.627 358.55H94.9879Z" fill="black"/>
<path d="M403.365 400.152V334.697H407.558V400.152H403.365ZM414.487 356.302C414.282 354.24 413.404 352.638 411.853 351.496C410.302 350.354 408.197 349.783 405.538 349.783C403.731 349.783 402.206 350.038 400.961 350.55C399.717 351.044 398.762 351.734 398.098 352.621C397.45 353.507 397.126 354.513 397.126 355.638C397.092 356.575 397.288 357.393 397.714 358.092C398.157 358.791 398.762 359.396 399.529 359.908C400.296 360.402 401.183 360.837 402.188 361.212C403.194 361.57 404.268 361.876 405.41 362.132L410.115 363.257C412.399 363.768 414.495 364.45 416.404 365.302C418.313 366.155 419.967 367.203 421.365 368.447C422.762 369.692 423.845 371.158 424.612 372.845C425.396 374.533 425.796 376.467 425.813 378.649C425.796 381.854 424.978 384.632 423.359 386.984C421.757 389.32 419.438 391.135 416.404 392.43C413.387 393.709 409.748 394.348 405.487 394.348C401.259 394.348 397.578 393.7 394.441 392.405C391.322 391.109 388.884 389.192 387.129 386.652C385.39 384.095 384.478 380.933 384.393 377.166H395.106C395.225 378.922 395.728 380.388 396.615 381.564C397.518 382.723 398.72 383.601 400.22 384.197C401.737 384.777 403.45 385.067 405.359 385.067C407.234 385.067 408.862 384.794 410.242 384.248C411.64 383.703 412.723 382.945 413.49 381.973C414.257 381.001 414.64 379.885 414.64 378.623C414.64 377.447 414.291 376.459 413.592 375.658C412.91 374.856 411.904 374.175 410.575 373.612C409.262 373.05 407.652 372.538 405.742 372.078L400.041 370.646C395.626 369.572 392.14 367.893 389.583 365.609C387.027 363.325 385.757 360.248 385.774 356.379C385.757 353.209 386.6 350.439 388.305 348.07C390.027 345.7 392.387 343.851 395.387 342.521C398.387 341.192 401.796 340.527 405.615 340.527C409.501 340.527 412.893 341.192 415.791 342.521C418.706 343.851 420.973 345.7 422.592 348.07C424.211 350.439 425.046 353.183 425.098 356.302H414.487Z" fill="black"/>
</svg>
