<svg width="513" height="512" viewBox="0 0 513 512" fill="none" xmlns="http://www.w3.org/2000/svg">
<g clip-path="url(#clip0_959_365)">
<path d="M403.766 280.269C382.143 280.269 361.242 286.573 343.286 298.55C326.522 309.768 313.786 325.051 305.639 342.664L302.134 334.119C298.72 325.828 289.236 321.835 280.908 325.268C272.599 328.682 268.642 338.184 272.057 346.494L290.573 391.547C293.084 397.671 298.901 401.428 305.115 401.627C307.337 401.699 309.613 401.302 311.799 400.398L356.87 381.882C365.18 378.468 369.136 368.966 365.722 360.656C362.308 352.347 352.824 348.372 344.496 351.805L335.554 355.472C341.262 343.549 349.97 333.216 361.368 325.593C373.923 317.229 388.592 312.803 403.784 312.803C445.658 312.803 479.728 346.873 479.728 388.747C479.728 430.494 445.658 464.456 403.64 464.456C403.423 464.456 403.188 464.456 402.953 464.456C382.992 464.456 364.205 456.562 350.024 442.2C343.719 435.805 333.422 435.751 327.046 442.038C320.651 448.342 320.578 458.639 326.883 465.016C347.224 485.646 374.212 496.972 402.809 496.972C462.783 497.243 512.244 448.74 512.244 388.747C512.226 328.917 463.578 280.269 403.766 280.269Z" fill="black"/>
<path d="M285.463 449.552H72.1191C51.2003 449.552 34.1834 432.535 34.1834 411.616V86.4521C34.1834 65.5333 51.2003 48.5164 72.1191 48.5164H147.72V148.703C147.72 163.046 159.389 174.716 173.733 174.716H295.669C310.013 174.716 321.682 163.046 321.682 148.703V48.5164H397.283C418.202 48.5164 435.219 65.5333 435.219 86.4521V259.512C435.219 268.49 442.499 275.77 451.477 275.77C460.455 275.77 467.735 268.49 467.735 259.512V86.4521C467.735 47.6131 436.122 16 397.283 16H72.1191C33.2801 16 1.66699 47.6131 1.66699 86.4521V411.616C1.66699 450.455 33.2801 482.068 72.1191 482.068H285.463C294.441 482.068 301.721 474.788 301.721 465.81C301.721 456.832 294.441 449.552 285.463 449.552ZM289.166 142.2H180.236V48.5164H289.166V142.2Z" fill="black"/>
<path d="M95.35 372.126C86.3718 372.126 79.0918 379.406 79.0918 388.384C79.0918 397.362 86.3718 404.642 95.35 404.642H162.532C171.511 404.642 178.791 397.362 178.791 388.384C178.791 379.406 171.511 372.126 162.532 372.126H95.35Z" fill="black"/>
</g>
<defs>
<clipPath id="clip0_959_365">
<rect width="512" height="512" fill="white" transform="translate(0.666992)"/>
</clipPath>
</defs>
</svg>
