<svg width="40" height="40" viewBox="0 0 40 40" fill="none" xmlns="http://www.w3.org/2000/svg">
<path d="M35 20.7063V18.333C35 14.3548 33.4196 10.5395 30.6066 7.72641C27.7936 4.91336 23.9782 3.33301 20 3.33301C16.0218 3.33301 12.2064 4.91336 9.3934 7.72641C6.58035 10.5395 5 14.3548 5 18.333V20.7063C3.25193 21.4761 1.82133 22.8229 0.947702 24.5215C0.0740701 26.22 -0.189566 28.1671 0.200928 30.0367C0.591423 31.9064 1.61234 33.5852 3.09278 34.7921C4.57322 35.999 6.42331 36.6606 8.33333 36.6663C9.21739 36.6663 10.0652 36.3152 10.6904 35.69C11.3155 35.0649 11.6667 34.2171 11.6667 33.333V23.333C11.6667 22.449 11.3155 21.6011 10.6904 20.976C10.0652 20.3509 9.21739 19.9997 8.33333 19.9997V18.333C8.33333 15.2388 9.5625 12.2714 11.7504 10.0834C13.9383 7.8955 16.9058 6.66634 20 6.66634C23.0942 6.66634 26.0617 7.8955 28.2496 10.0834C30.4375 12.2714 31.6667 15.2388 31.6667 18.333V19.9997C30.7826 19.9997 29.9348 20.3509 29.3096 20.976C28.6845 21.6011 28.3333 22.449 28.3333 23.333V33.333H23.3333C22.8913 33.333 22.4674 33.5086 22.1548 33.8212C21.8423 34.1337 21.6667 34.5576 21.6667 34.9997C21.6667 35.4417 21.8423 35.8656 22.1548 36.1782C22.4674 36.4907 22.8913 36.6663 23.3333 36.6663H31.6667C33.5767 36.6606 35.4268 35.999 36.9072 34.7921C38.3877 33.5852 39.4086 31.9064 39.7991 30.0367C40.1896 28.1671 39.9259 26.22 39.0523 24.5215C38.1787 22.8229 36.7481 21.4761 35 20.7063ZM8.33333 33.333C7.00725 33.333 5.73548 32.8062 4.7978 31.8685C3.86012 30.9309 3.33333 29.6591 3.33333 28.333C3.33333 27.0069 3.86012 25.7352 4.7978 24.7975C5.73548 23.8598 7.00725 23.333 8.33333 23.333V33.333ZM31.6667 33.333V23.333C32.9927 23.333 34.2645 23.8598 35.2022 24.7975C36.1399 25.7352 36.6667 27.0069 36.6667 28.333C36.6667 29.6591 36.1399 30.9309 35.2022 31.8685C34.2645 32.8062 32.9927 33.333 31.6667 33.333Z" fill="#262D34"/>
</svg>
