<svg width="40" height="40" viewBox="0 0 40 40" fill="none" xmlns="http://www.w3.org/2000/svg">
<path d="M14.3201 4.34047L14.3201 4.34047L14.3189 4.34166L6.38148 12.132L6.38147 12.132L6.38006 12.1334C5.3896 13.1318 4.83986 14.4696 4.85014 15.8596L4.85014 31.874L4.85014 31.8745C4.85418 33.2737 5.42659 34.6137 6.44098 35.6019C7.45523 36.5899 8.82889 37.1461 10.2616 37.15H10.262H28.7381C30.1722 37.15 31.5483 36.5951 32.5635 35.6061C33.5788 34.617 34.15 33.2746 34.15 31.874V8.12666C34.15 6.72611 33.5788 5.38373 32.5635 4.39462C31.5483 3.40563 30.1722 2.8507 28.7381 2.8507H18.1412C17.4352 2.83936 16.7338 2.96509 16.0779 3.22065C15.4217 3.47636 14.8241 3.85698 14.3201 4.34047ZM7.02302 15.859V15.859C7.02292 15.4538 7.10543 15.0525 7.26585 14.6784C7.42628 14.3042 7.6615 13.9646 7.95805 13.6793L7.95882 13.6785L15.8798 5.94772C15.8943 5.93438 15.909 5.92125 15.9239 5.90831V13.3343H9.6972C9.40242 13.3343 9.11895 13.4483 8.90934 13.6525C8.69961 13.8569 8.58103 14.1348 8.58103 14.4255C8.58103 14.7162 8.69961 14.9942 8.90934 15.1985C9.11895 15.4027 9.40242 15.5167 9.6972 15.5167H17.0103C17.3051 15.5167 17.5886 15.4027 17.7982 15.1985C18.0079 14.9942 18.1265 14.7162 18.1265 14.4255V5.0476H28.7084C29.5529 5.0476 30.3621 5.37445 30.9581 5.95506C31.5539 6.53553 31.8879 7.32197 31.8879 8.14114V8.14133L31.9177 31.874C31.9177 31.8741 31.9177 31.8742 31.9177 31.8742C31.9176 32.2799 31.8356 32.6816 31.6762 33.0566C31.5167 33.4316 31.2829 33.7727 30.9878 34.0601C30.6927 34.3476 30.3422 34.5758 29.9561 34.7316C29.5701 34.8874 29.1562 34.9676 28.7381 34.9676H10.2026C9.78449 34.9676 9.37059 34.8874 8.98454 34.7316C8.59849 34.5758 8.24797 34.3476 7.95289 34.0601C7.65782 33.7727 7.42397 33.4316 7.26451 33.0566C7.10504 32.6816 7.02302 32.2797 7.02302 31.874V15.859Z" fill="#262D34" stroke="#262D34" stroke-width="0.3"/>
<path d="M25.037 20H12.963C12.8365 20 12.7113 20.0259 12.5945 20.0761C12.4776 20.1264 12.3715 20.2 12.282 20.2929C12.1926 20.3858 12.1217 20.496 12.0733 20.6173C12.0249 20.7386 12 20.8687 12 21C12 21.1313 12.0249 21.2614 12.0733 21.3827C12.1217 21.504 12.1926 21.6142 12.282 21.7071C12.3715 21.8 12.4776 21.8736 12.5945 21.9239C12.7113 21.9741 12.8365 22 12.963 22H25.037C25.2924 22 25.5374 21.8946 25.718 21.7071C25.8985 21.5196 26 21.2652 26 21C26 20.7348 25.8985 20.4804 25.718 20.2929C25.5374 20.1054 25.2924 20 25.037 20Z" fill="#262D34"/>
<path d="M25.037 24H12.963C12.7076 24 12.4626 24.1054 12.282 24.2929C12.1015 24.4804 12 24.7348 12 25C12 25.2652 12.1015 25.5196 12.282 25.7071C12.4626 25.8946 12.7076 26 12.963 26H25.037C25.2924 26 25.5374 25.8946 25.718 25.7071C25.8985 25.5196 26 25.2652 26 25C26 24.7348 25.8985 24.4804 25.718 24.2929C25.5374 24.1054 25.2924 24 25.037 24Z" fill="#262D34"/>
<path d="M25.037 28H12.963C12.7076 28 12.4626 28.1054 12.282 28.2929C12.1015 28.4804 12 28.7348 12 29C12 29.2652 12.1015 29.5196 12.282 29.7071C12.4626 29.8946 12.7076 30 12.963 30H25.037C25.2924 30 25.5374 29.8946 25.718 29.7071C25.8985 29.5196 26 29.2652 26 29C26 28.7348 25.8985 28.4804 25.718 28.2929C25.5374 28.1054 25.2924 28 25.037 28Z" fill="#262D34"/>
</svg>
