<svg width="40" height="40" viewBox="0 0 40 40" fill="none" xmlns="http://www.w3.org/2000/svg">
<g clip-path="url(#clip0_876_5199)">
<path d="M28.745 17.1317C29.55 17.92 30.6083 18.3133 31.6667 18.3133C32.725 18.3133 33.7833 17.92 34.5867 17.1317L37.5583 14.225C40.8083 10.975 40.8083 5.68833 37.5583 2.44C35.985 0.866667 33.8917 0 31.6667 0C29.4417 0 27.3483 0.866667 25.7733 2.44C22.525 5.69 22.525 10.9767 25.7867 14.2383L28.745 17.1317ZM28.13 4.79833C29.075 3.85333 30.33 3.33333 31.6667 3.33333C33.0033 3.33333 34.2583 3.85333 35.2017 4.79667C37.1517 6.74667 37.1517 9.91833 35.215 11.855L32.2567 14.7483C31.9317 15.0683 31.4017 15.0683 31.0767 14.7483L28.1317 11.8683C26.1833 9.91833 26.1833 6.74667 28.1317 4.79667L28.13 4.79833ZM6.66667 36.6667C6.66667 38.5083 5.175 40 3.33333 40C1.49167 40 0 38.5083 0 36.6667C0 34.825 1.49167 33.3333 3.33333 33.3333C5.175 33.3333 6.66667 34.825 6.66667 36.6667ZM24.1667 26.6667C24.1667 28.5083 22.675 30 20.8333 30C18.9917 30 17.5 28.5083 17.5 26.6667C17.5 24.825 18.9917 23.3333 20.8333 23.3333C22.675 23.3333 24.1667 24.825 24.1667 26.6667ZM3.33333 21.6667C3.33333 17.99 6.32333 15 10 15H21.6667C22.5867 15 23.3333 15.7467 23.3333 16.6667C23.3333 17.5867 22.5867 18.3333 21.6667 18.3333H10C8.16167 18.3333 6.66667 19.8283 6.66667 21.6667C6.66667 23.505 8.16167 25 10 25H13.3333C14.2533 25 15 25.7467 15 26.6667C15 27.5867 14.2533 28.3333 13.3333 28.3333H10C6.32333 28.3333 3.33333 25.3433 3.33333 21.6667ZM40 31.6667C40 35.3433 37.01 38.3333 33.3333 38.3333H11.6667C10.7467 38.3333 10 37.5867 10 36.6667C10 35.7467 10.7467 35 11.6667 35H33.3333C35.1717 35 36.6667 33.505 36.6667 31.6667C36.6667 29.8283 35.1717 28.3333 33.3333 28.3333H28.3333C27.4133 28.3333 26.6667 27.5867 26.6667 26.6667C26.6667 25.7467 27.4133 25 28.3333 25H33.3333C37.01 25 40 27.99 40 31.6667ZM33.335 7.97833C33.335 8.89833 32.5883 9.645 31.6683 9.645C30.7483 9.645 30.0017 8.89833 30.0017 7.97833C30.0017 7.05833 30.7483 6.31167 31.6683 6.31167C32.5883 6.31167 33.335 7.05833 33.335 7.97833Z" fill="#262D34"/>
</g>
<defs>
<clipPath id="clip0_876_5199">
<rect width="40" height="40" fill="white"/>
</clipPath>
</defs>
</svg>
