<svg width="40" height="40" viewBox="0 0 40 40" fill="none" xmlns="http://www.w3.org/2000/svg">
<g clip-path="url(#clip0_876_5190)">
<path fill-rule="evenodd" clip-rule="evenodd" d="M9 14.5C9 13.6716 9.62681 13 10.4 13H21.6C22.3732 13 23 13.6716 23 14.5C23 15.3284 22.3732 16 21.6 16H10.4C9.62681 16 9 15.3284 9 14.5Z" fill="#262D34"/>
<path fill-rule="evenodd" clip-rule="evenodd" d="M33.0669 17.6786C32.4171 17.6786 31.8454 17.9271 31.4331 18.345L31.4086 18.3691C30.9271 18.8329 30.6581 19.493 30.7258 20.1945L30.7273 20.2102C30.823 21.3441 31.9281 22.3214 33.2842 22.3214H36.801C37.0937 22.3027 37.2847 22.077 37.2847 21.8393V18.1607C37.2847 17.9229 37.0937 17.6971 36.801 17.6786H33.0669ZM29.4996 16.4641C30.4259 15.5324 31.6955 15 33.0669 15H36.8322C36.8484 15 36.8646 15.0003 36.8807 15.0008C38.6058 15.0616 40 16.4387 40 18.1607V21.8393C40 23.5612 38.6058 24.9384 36.8807 24.9991C36.8646 24.9996 36.8484 25 36.8322 25H33.2842C30.7327 25 28.2562 23.1595 28.0219 20.4405C27.8758 18.9009 28.4699 17.4625 29.4996 16.4641Z" fill="#262D34"/>
<path fill-rule="evenodd" clip-rule="evenodd" d="M10.6585 5.75676C10.2058 5.75676 9.77616 5.78881 9.36848 5.851L9.33019 5.85629C7.27758 6.11168 5.66402 6.98298 4.55917 8.26818C3.45146 9.55669 2.78049 11.3491 2.78049 13.5676V26.4324C2.78049 28.876 3.59593 30.8052 4.92208 32.12C6.24822 33.4348 8.19399 34.2432 10.6585 34.2432H27.3415C29.8061 34.2432 31.7519 33.4348 33.078 32.12C34.4041 30.8052 35.2195 28.876 35.2195 26.4324V25.1459H32.9766C30.3637 25.1459 27.8277 23.2517 27.588 20.4534C27.4382 18.8688 28.0468 17.3884 29.1011 16.3611C30.0495 15.402 31.3496 14.8541 32.7541 14.8541H35.2195V13.5676C35.2195 11.334 34.5368 9.5305 33.4116 8.23782C32.2891 6.94808 30.6504 6.07913 28.5712 5.8394C28.5484 5.83678 28.5258 5.8336 28.5032 5.82987C28.1697 5.77477 27.7949 5.75676 27.3415 5.75676H10.6585ZM8.9649 3.12337C9.51507 3.04051 10.08 3 10.6585 3H27.3415C27.8414 3 28.381 3.01792 28.9254 3.10496C31.6141 3.42222 33.9025 4.58219 35.5167 6.43676C37.1349 8.29597 38 10.7654 38 13.5676V16.2325C38 16.9937 37.3775 17.6108 36.6098 17.6108H32.7541C32.0885 17.6108 31.5031 17.8666 31.0808 18.2967L31.056 18.3215C30.5628 18.7988 30.2873 19.4784 30.3566 20.2001L30.3583 20.2163C30.4564 21.3833 31.588 22.3892 32.9766 22.3892H36.6098C37.3775 22.3892 38 23.0063 38 23.7676V26.4324C38 29.5024 36.9618 32.1678 35.044 34.0692C33.1262 35.9706 30.4378 37 27.3415 37H10.6585C7.56211 37 4.87373 35.9706 2.95597 34.0692C1.03822 32.1678 0 29.5024 0 26.4324V13.5676C0 10.7872 0.849031 8.33412 2.44305 6.47993C4.0361 4.62684 6.29895 3.45928 8.9649 3.12337Z" fill="#262D34"/>
</g>
<defs>
<clipPath id="clip0_876_5190">
<rect width="40" height="40" fill="white"/>
</clipPath>
</defs>
</svg>
