<svg width="30" height="30" viewBox="0 0 30 30" fill="none" xmlns="http://www.w3.org/2000/svg">
<path fill-rule="evenodd" clip-rule="evenodd" d="M11.0017 21C9.90172 21 9.01172 21.9 9.01172 23C9.01172 24.1 9.90172 25 11.0017 25C12.1017 25 13.0017 24.1 13.0017 23C13.0017 21.9 12.1017 21 11.0017 21ZM5 6C5 6.55 5.45 7 6 7H7L10.6 14.59L9.25 17.03C8.52 18.37 9.48 20 11 20H22C22.55 20 23 19.55 23 19C23 18.45 22.55 18 22 18H11L12.1 16H19.55C20.3 16 20.96 15.59 21.3 14.97L24.88 8.48C25.25 7.82 24.77 7 24.01 7H9.21L8.54 5.57C8.38 5.22 8.02 5 7.64 5H6C5.45 5 5 5.45 5 6ZM21.0017 21C19.9017 21 19.0117 21.9 19.0117 23C19.0117 24.1 19.9017 25 21.0017 25C22.1017 25 23.0017 24.1 23.0017 23C23.0017 21.9 22.1017 21 21.0017 21Z" fill="#C3CAD9"/>
</svg>
