<svg width="155" height="40" viewBox="0 0 155 40" fill="none" xmlns="http://www.w3.org/2000/svg">
<path d="M55.9855 16.4339C55.8478 15.9654 55.6544 15.5515 55.4053 15.1921C55.1562 14.8263 54.8514 14.5183 54.4908 14.268C54.1368 14.0113 53.7304 13.8156 53.2715 13.6808C52.8192 13.546 52.3177 13.4786 51.767 13.4786C50.7378 13.4786 49.8331 13.7289 49.053 14.2295C48.2794 14.73 47.6763 15.4584 47.2437 16.4146C46.811 17.3644 46.5947 18.526 46.5947 19.8993C46.5947 21.2727 46.8077 22.4406 47.2338 23.4033C47.6599 24.3659 48.263 25.1007 49.0432 25.6077C49.8233 26.1082 50.7443 26.3585 51.8063 26.3585C52.77 26.3585 53.5927 26.1917 54.2745 25.858C54.9628 25.5178 55.4873 25.0397 55.8478 24.4236C56.2149 23.8076 56.3985 23.0792 56.3985 22.2385L57.2638 22.3636H52.0718V19.2255H60.499V21.7091C60.499 23.4418 60.1253 24.9306 59.378 26.1756C58.6306 27.4142 57.6014 28.3704 56.2903 29.0442C54.9792 29.7117 53.478 30.0454 51.7867 30.0454C49.8987 30.0454 48.2401 29.6378 46.811 28.8228C45.3819 28.0014 44.2674 26.8366 43.4677 25.3285C42.6744 23.814 42.2778 22.0171 42.2778 19.9378C42.2778 18.3399 42.5138 16.9152 42.9858 15.6638C43.4644 14.406 44.1331 13.3407 44.9918 12.4679C45.8506 11.5951 46.8503 10.9309 47.991 10.4753C49.1317 10.0196 50.3674 9.79179 51.6982 9.79179C52.8388 9.79179 53.9008 9.95544 54.8841 10.2827C55.8675 10.6036 56.7394 11.0592 57.4998 11.6497C58.2668 12.2401 58.8929 12.9428 59.378 13.7578C59.8631 14.5664 60.1745 15.4584 60.3121 16.4339H55.9855Z" fill="#01937C"/>
<path d="M63.0648 29.7758V14.99H67.1259V17.5698H67.2833C67.5586 16.6521 68.0208 15.959 68.6698 15.4905C69.3188 15.0156 70.0661 14.7782 70.9118 14.7782C71.1216 14.7782 71.3477 14.791 71.5903 14.8167C71.8328 14.8423 72.0459 14.8776 72.2294 14.9226V18.5613C72.0328 18.5035 71.7607 18.4522 71.4133 18.4073C71.0658 18.3623 70.7479 18.3399 70.4594 18.3399C69.8432 18.3399 69.2926 18.4714 68.8074 18.7346C68.3289 18.9912 67.9487 19.3506 67.6668 19.8127C67.3914 20.2747 67.2538 20.8074 67.2538 21.4106V29.7758H63.0648Z" fill="#01937C"/>
<path d="M79.9627 30.0646C78.4352 30.0646 77.1143 29.7469 75.9998 29.1116C74.8919 28.4699 74.0364 27.5778 73.4333 26.4355C72.8302 25.2868 72.5287 23.9552 72.5287 22.4406C72.5287 20.9133 72.8302 19.5784 73.4333 18.4361C74.0364 17.2874 74.8919 16.3954 75.9998 15.76C77.1143 15.1183 78.4352 14.7974 79.9627 14.7974C81.4901 14.7974 82.8078 15.1183 83.9157 15.76C85.0301 16.3954 85.8889 17.2874 86.492 18.4361C87.0951 19.5784 87.3967 20.9133 87.3967 22.4406C87.3967 23.9552 87.0951 25.2868 86.492 26.4355C85.8889 27.5778 85.0301 28.4699 83.9157 29.1116C82.8078 29.7469 81.4901 30.0646 79.9627 30.0646ZM79.9823 26.888C80.6772 26.888 81.2574 26.6954 81.7228 26.3104C82.1883 25.9189 82.539 25.3863 82.775 24.7124C83.0175 24.0386 83.1388 23.2717 83.1388 22.4118C83.1388 21.5518 83.0175 20.7849 82.775 20.1111C82.539 19.4373 82.1883 18.9046 81.7228 18.5131C81.2574 18.1217 80.6772 17.9259 79.9823 17.9259C79.2809 17.9259 78.6909 18.1217 78.2123 18.5131C77.7403 18.9046 77.383 19.4373 77.1405 20.1111C76.9045 20.7849 76.7865 21.5518 76.7865 22.4118C76.7865 23.2717 76.9045 24.0386 77.1405 24.7124C77.383 25.3863 77.7403 25.9189 78.2123 26.3104C78.6909 26.6954 79.2809 26.888 79.9823 26.888Z" fill="#01937C"/>
<path d="M97.689 14.99V18.0703H88.367V14.99H97.689ZM90.5008 29.7758V13.9214C90.5008 12.8497 90.7139 11.9609 91.14 11.255C91.5727 10.5491 92.1627 10.0196 92.91 9.66665C93.6573 9.31369 94.5063 9.13721 95.4568 9.13721C96.0993 9.13721 96.686 9.18534 97.217 9.2816C97.7545 9.37786 98.1544 9.4645 98.4167 9.54151L97.6693 12.6219C97.5054 12.5706 97.3022 12.5224 97.0597 12.4775C96.8237 12.4326 96.5811 12.4101 96.332 12.4101C95.7158 12.4101 95.2864 12.5513 95.0438 12.8337C94.8013 13.1096 94.68 13.4979 94.68 13.9984V29.7758H90.5008Z" fill="#01937C"/>
<path d="M99.6943 29.7758V14.99H103.755V17.5698H103.913C104.188 16.6521 104.65 15.959 105.299 15.4905C105.948 15.0156 106.696 14.7782 107.541 14.7782C107.751 14.7782 107.977 14.791 108.22 14.8167C108.462 14.8423 108.675 14.8776 108.859 14.9226V18.5613C108.662 18.5035 108.39 18.4522 108.043 18.4073C107.695 18.3623 107.377 18.3399 107.089 18.3399C106.473 18.3399 105.922 18.4714 105.437 18.7346C104.958 18.9912 104.578 19.3506 104.296 19.8127C104.021 20.2747 103.883 20.8074 103.883 21.4106V29.7758H99.6943Z" fill="#01937C"/>
<path d="M116.651 30.0646C115.098 30.0646 113.76 29.7566 112.639 29.1405C111.525 28.518 110.666 27.6388 110.063 26.5029C109.46 25.3606 109.158 24.0097 109.158 22.4503C109.158 20.9293 109.46 19.5945 110.063 18.4458C110.666 17.297 111.515 16.4018 112.61 15.76C113.711 15.1183 115.002 14.7974 116.484 14.7974C117.48 14.7974 118.408 14.9547 119.267 15.2691C120.132 15.5771 120.886 16.0424 121.528 16.6649C122.177 17.2874 122.682 18.0703 123.043 19.0137C123.403 19.9507 123.584 21.0481 123.584 22.3059V23.4321H110.83V20.8908H119.64C119.64 20.3004 119.509 19.7774 119.247 19.3217C118.985 18.8661 118.621 18.5099 118.156 18.2532C117.697 17.9901 117.163 17.8586 116.553 17.8586C115.917 17.8586 115.353 18.003 114.862 18.2917C114.376 18.5741 113.996 18.956 113.721 19.4373C113.446 19.9122 113.305 20.4416 113.298 21.0256V23.4418C113.298 24.1734 113.436 24.8055 113.711 25.3381C113.993 25.8708 114.39 26.2815 114.901 26.5703C115.412 26.8591 116.019 27.0035 116.72 27.0035C117.185 27.0035 117.612 26.9393 117.998 26.8109C118.385 26.6826 118.716 26.4901 118.992 26.2334C119.267 25.9767 119.477 25.6622 119.621 25.29L123.495 25.5403C123.298 26.4516 122.895 27.2473 122.286 27.9276C121.683 28.6014 120.902 29.1277 119.945 29.5063C118.995 29.8785 117.897 30.0646 116.651 30.0646Z" fill="#01937C"/>
<path d="M138.33 19.2062L134.496 19.4373C134.43 19.1164 134.289 18.8276 134.073 18.5709C133.856 18.3078 133.571 18.0992 133.217 17.9452C132.87 17.7848 132.453 17.7045 131.968 17.7045C131.319 17.7045 130.772 17.8393 130.326 18.1088C129.88 18.372 129.658 18.7249 129.658 19.1677C129.658 19.5207 129.802 19.8191 130.09 20.063C130.379 20.3068 130.874 20.5026 131.575 20.6502L134.309 21.1892C135.777 21.4844 136.872 21.9593 137.593 22.6139C138.314 23.2685 138.675 24.1284 138.675 25.1937C138.675 26.1628 138.383 27.0131 137.799 27.7447C137.223 28.4763 136.429 29.0474 135.42 29.4582C134.417 29.8625 133.26 30.0646 131.949 30.0646C129.949 30.0646 128.356 29.6571 127.17 28.8421C125.99 28.0206 125.298 26.904 125.095 25.4922L129.215 25.2804C129.34 25.8772 129.641 26.3328 130.12 26.6473C130.598 26.9553 131.211 27.1094 131.959 27.1094C132.693 27.1094 133.283 26.9714 133.729 26.6954C134.181 26.4131 134.41 26.0505 134.417 25.6077C134.41 25.2355 134.25 24.9306 133.935 24.6932C133.62 24.4493 133.135 24.2632 132.48 24.1349L129.864 23.6247C128.389 23.3359 127.291 22.8353 126.57 22.123C125.855 21.4106 125.498 20.5026 125.498 19.3988C125.498 18.449 125.76 17.6307 126.285 16.9441C126.816 16.2574 127.56 15.728 128.517 15.3557C129.481 14.9835 130.608 14.7974 131.9 14.7974C133.807 14.7974 135.308 15.1921 136.403 15.9815C137.505 16.7708 138.147 17.8457 138.33 19.2062Z" fill="#01937C"/>
<path d="M144.948 21.2277V29.7758H140.759V10.0613H144.83V17.5987H145.007C145.348 16.7259 145.898 16.0424 146.659 15.5483C147.419 15.0477 148.373 14.7974 149.52 14.7974C150.569 14.7974 151.484 15.022 152.264 15.4713C153.05 15.9141 153.66 16.5526 154.093 17.3869C154.532 18.2147 154.748 19.2062 154.742 20.3614V29.7758H150.553V21.093C150.559 20.1817 150.323 19.4726 149.845 18.9656C149.373 18.4586 148.711 18.2051 147.858 18.2051C147.288 18.2051 146.783 18.3238 146.344 18.5613C145.911 18.7987 145.57 19.1453 145.321 19.6009C145.079 20.0501 144.954 20.5924 144.948 21.2277Z" fill="#01937C"/>
<path d="M-0.350586 30.0267L17.5429 40.0335L-0.350586 10.0098L-0.350586 30.0267Z" fill="url(#paint0_linear_486_1400)"/>
<path d="M17.5429 0L-0.350586 10.0101L35.4329 10.0101L17.5429 0Z" fill="url(#paint1_linear_486_1400)"/>
<path d="M17.5386 40.0335L35.4286 30.0267V10.0098L17.5386 40.0335Z" fill="url(#paint2_linear_486_1400)"/>
<path d="M-0.350586 10.0098L17.5429 40.0335L35.4329 10.0098L-0.350586 10.0098Z" fill="url(#paint3_linear_486_1400)"/>
<path d="M19.7023 17.5013C19.7023 17.5013 13.6275 16.8962 12.5662 21.11C11.5049 25.3237 11.3387 25.8966 11.3387 25.8966C11.3387 25.8966 10.6937 28.6806 13.0571 28.8357C14.6542 28.9394 16.2572 28.9414 17.8546 28.8418M22.9218 22.064C21.8627 26.2828 21.7366 28.8977 17.4053 28.8624M18.6904 23.6411C20.8186 22.434 23.1888 21.6309 25.661 21.2791" stroke="white" stroke-width="2.94471" stroke-linecap="round"/>
<path d="M16.5009 14.9209C16.4826 14.7883 15.7276 9.44511 22.3465 9.81579C22.4547 10.3856 22.4396 10.9693 22.3021 11.5337C22.1645 12.0982 21.9073 12.6322 21.5449 13.1053C21.1825 13.5785 20.7221 13.9815 20.19 14.2913C19.658 14.6012 19.0646 14.8117 18.4439 14.9111C17.9571 14.989 17.4601 14.9975 16.9706 14.9361C16.8181 14.9337 16.6616 14.9287 16.5009 14.9209Z" fill="white" stroke="white" stroke-width="0.02531"/>
<defs>
<linearGradient id="paint0_linear_486_1400" x1="8.59614" y1="40.0335" x2="8.59614" y2="10.0098" gradientUnits="userSpaceOnUse">
<stop stop-color="#01937C"/>
<stop offset="1" stop-color="#00D0AF"/>
</linearGradient>
<linearGradient id="paint1_linear_486_1400" x1="17.5412" y1="10.0101" x2="17.5412" y2="-1.12358e-07" gradientUnits="userSpaceOnUse">
<stop stop-color="#00D0AF"/>
<stop offset="1" stop-color="#01937C"/>
</linearGradient>
<linearGradient id="paint2_linear_486_1400" x1="26.4836" y1="40.0335" x2="26.4836" y2="10.0098" gradientUnits="userSpaceOnUse">
<stop stop-color="#01937C"/>
<stop offset="1" stop-color="#00D0AF"/>
</linearGradient>
<linearGradient id="paint3_linear_486_1400" x1="17.5412" y1="40.0335" x2="17.5412" y2="10.0098" gradientUnits="userSpaceOnUse">
<stop stop-color="#00D0AF"/>
<stop offset="1" stop-color="#01937C"/>
</linearGradient>
</defs>
</svg>
